<?xml version="1.0" encoding="UTF-8"?><svg id="a" xmlns="http://www.w3.org/2000/svg" viewBox="0 0 431.31 251.31"><defs><style>.b{fill:#ff6f0f;}</style></defs><path class="b" d="M410.05,226.76c-.28-.31-.61-.74-.89-1.3-.38-.74-.53-1.42-.6-1.89-15.55-113.33-26.93-196.72-26.89-197.25,.05-.71,.16-1.4,.17-1.4h0c.11-.27,.24-.46,.32-.56l4.38-4.35v-6.33h-73.5c0,2.11,0,4.21,0,6.32,1.38,1.29,2.76,2.58,4.14,3.87,.14,.1,.5,.4,.68,.93,.18,.51,.09,.95,.05,1.12-8.94,66.02-17.89,132.04-26.83,198.06-.03,.36-.13,.92-.43,1.53-.23,.45-.49,.79-.71,1.03l-3.72,3.8v6.33h127.39c.02-2.14,.03-4.28,.05-6.42-1.2-1.16-2.4-2.32-3.6-3.47Zm-80.17-22.25l20.27-154.69,16.89,154.69h-37.16Z"/><path class="b" d="M272.46,231.34c-.04-.06-.08-.11-.13-.17-.07-.05-.13-.1-.2-.15l-.24-.04c-.57,.03-1.61,.06-2.7-.04-.38-.03-.88-.09-1.3-.45-.15-.13-.27-.27-.35-.39-.24-.4-.48-.8-.72-1.21-12.01-25.42-24.01-50.84-36.02-76.26-.14-.41-.29-.83-.42-1.28-.12-.42-.24-.84-.37-1.26-.03-.59-.07-1.19-.1-1.78,.02-.63,.03-1.26,.05-1.88,.11-.43,.22-.85,.34-1.28,.14-.35,.27-.71,.41-1.07,.27-.29,.54-.59,.81-.88,10.81-6.46,21.63-12.93,32.44-19.39,1.22-.99,2.72-2.46,3.93-4.55,0,0,1.66-2.9,2.07-6.61,.56-5.06,1.09-36.81,1.16-80.34-.09-.72-.18-1.44-.27-2.16-.54-1.93-1.93-5.86-5.49-9.49-3.83-3.91-8.08-5.35-10.01-5.87-.3-.04-.6-.08-.91-.12-34.76-.02-69.52-.03-104.27-.05,0,2.13,0,4.26,0,6.39,1.82,.9,3.64,1.81,5.46,2.71,.14,.07,.45,.25,.68,.61,.25,.38,.29,.75,.3,.92-.23,141.85-.28,199.54-.21,200.21,0,.03,.02,.51,0,1.15,0,.22-.04,.56-.21,.94-.21,.49-.53,.8-.71,.96-.32,.16-.64,.32-.95,.47-1.46,.72-2.91,1.45-4.37,2.17v6.45h44.46l-.07-6.52c-.3-.14-3.1-1.45-4.8-2.44-.22-.13-.63-.37-.95-.85-.41-.61-.44-1.28-.43-1.68-.01-21.72-.02-43.44-.03-65.16,2.97,0,5.94-.02,8.91-.03,.25,.04,.49,.08,.74,.12,.21,.1,.43,.2,.64,.31,.13,.13,.27,.28,.41,.46,.11,.14,.2,.28,.28,.41,.01,.02,.07,.11,.08,.13,12.43,21.13,23.46,43.43,32.96,66.95,.03,.12,.08,.4-.02,.72-.08,.27-.23,.44-.31,.53-.27,.13-.54,.26-.81,.39-.71,0-1.42,.01-2.14,.02h-2.5c.05,2.21,.1,4.42,.15,6.63h47.6c-.62-2.1-1.24-4.2-1.85-6.3Zm-75.07-115.57c-1.23-.12-2.46-.23-3.7-.35-1.08-.46-2.16-.93-3.24-1.39-.72-.76-1.43-1.51-2.15-2.27V51.09c.31-.63,.76-1.39,1.41-2.18,.94-1.14,1.95-1.89,2.69-2.35,.5-.34,1.15-.72,1.95-1.05,.89-.37,1.66-.54,2.14-.63,.64-.12,1.2-.16,1.65-.17h28.56c1.04,.15,2.07,.3,3.11,.44,1.08,.45,2.16,.89,3.23,1.34,.76,.73,1.52,1.46,2.28,2.2,.25,.75,.51,1.5,.76,2.25,.08,.67,.16,1.34,.24,2.01-.09,23.06-.06,32.29,.03,34,.01,.2,.07,1.15,.03,2.43-.04,1.35-.18,2.5-.31,3.35-.49,1.04-.98,2.07-1.46,3.11-.72,.61-1.44,1.23-2.15,1.84-.03,.02-2.35,1.3-2.39,1.32-4.57,2.52-24.43,13.49-29,16.01-1.23,.26-2.45,.51-3.68,.77Z"/><path class="b" d="M23.24,226.81V23.46l-5.58-4.18v-5.58c38.09,0,76.18,0,114.28,0l3.71,.77c.79,.86,1.59,1.72,2.38,2.58V52.05h-6c-.76-1.49-1.52-2.97-2.28-4.46l-1.43-1.43-2.42-.66H58.52c-.48,.01-1.29,.12-1.96,.66-1.1,.89-1.11,2.23-1.11,2.41-.05,13.9-.09,27.8-.14,41.7,.13,.41,.47,1.3,1.32,2.09,.78,.73,1.61,1.01,2.03,1.12,15.76-.09,31.52-.19,47.28-.28l6.28-6.42,3.77,.02,.07,41.48h-3.28l-6.31-3.24-47.81,.1c-.24,0-1.29,.03-2.18,.86-.98,.92-1.01,2.12-1.01,2.33l-.05,73.17c.03,.3,.18,1.27,.99,2.09,.98,.99,2.21,1.04,2.47,1.05h69.46l3.56-6.38,6.35-.03v34.87c-.03,.37-.14,1.28-.81,2.16-.79,1.04-1.85,1.37-2.19,1.46H17.66c0-.84,0-3.97,0-4.81,0-.16,0-1.86,0-2.02,.21-.12,1.98-1.09,2.19-1.2,.49-.27,2.9-1.6,3.39-1.86Z"/></svg>